<svg xmlns="http://www.w3.org/2000/svg" xmlns:xlink="http://www.w3.org/1999/xlink" height="1531.76467pt" viewBox="0 0 1525.413165 1531.76467" width="1525.413165pt" id="e576fe74-e7e6-11ec-b523-b7b727c683b6"><g><g><path style="fill:#d4d4d4;" d="M 744.6963,0.2964 C 728.4963,4.0964 716.8963,25.3964 716.8963,51.0964 716.9963,81.5964 729.4963,100.0964 753.0963,104.2964 764.6963,106.3964 779.0963,102.6964 787.9963,95.2964 792.5963,91.4964 798.3963,80.4964 800.9963,70.4964 803.8963,59.9964 803.9963,41.6964 801.4963,31.6964 798.9963,22.2964 794.6963,13.8964 789.5963,8.7964 784.6963,3.9964 780.0963,1.5964 772.7963,0.1964 766.5963,-1.0036 749.8963,-0.9036 744.6963,0.2964 Z M 768.2963,11.2964 C 770.3963,11.8964 774.0963,14.1964 776.4963,16.3964 793.9963,32.4964 792.3963,75.6964 773.7963,89.1964 761.1963,98.2964 745.9963,93.2964 737.8963,77.1964 729.4963,60.5964 729.8963,35.8964 738.7963,22.7964 745.4963,12.8964 757.2963,8.1964 768.2963,11.2964 Z"></path><path style="fill:#d4d4d4;" d="M 826.9963,3.0964 C 826.2963,3.5964 825.4963,5.8964 825.1963,8.3964 824.6963,12.3964 824.8963,12.8964 827.2963,13.9964 828.6963,14.5964 832.0963,15.3964 834.8963,15.7964 837.7963,16.1964 840.2963,17.0964 840.5963,17.7964 840.8963,18.5964 840.5963,22.8964 839.9963,27.3964 839.3963,31.9964 837.6963,44.6964 836.2963,55.6964 832.0963,89.2964 830.4963,92.8964 820.3963,91.6964 815.5963,91.0964 815.0963,91.1964 812.9963,93.6964 808.4963,99.4964 811.2963,101.7964 824.1963,103.1964 829.4963,103.6964 837.8963,105.0964 842.7963,106.1964 852.1963,108.2964 856.6963,108.5964 860.6963,107.5964 862.4963,107.0964 862.8963,106.2964 862.8963,102.5964 862.8963,98.4964 862.6963,98.2964 859.1963,97.2964 857.0963,96.6964 853.3963,96.1964 850.9963,96.1964 L 846.5963,96.1964 847.2963,86.7964 C 847.5963,81.5964 848.9963,70.3964 850.3963,61.8964 851.6963,53.3964 853.0963,42.4964 853.4963,37.7964 853.8963,33.0964 854.4963,29.1964 854.7963,29.1964 856.1963,29.2964 858.8963,31.9964 858.8963,33.2964 858.8963,34.5964 860.5963,40.7964 870.3963,75.6964 872.6963,83.8964 875.8963,95.2964 877.3963,100.8964 880.0963,110.3964 880.5963,111.3964 884.0963,113.6964 886.1963,115.0964 888.5963,116.1964 889.4963,116.1964 893.2963,116.1964 897.6963,112.8964 900.2963,108.2964 902.4963,104.0964 903.4963,99.0964 907.3963,71.5964 911.4963,42.7964 914.7963,26.1964 916.5963,26.1964 916.9963,26.1964 919.9963,26.9964 923.1963,27.8964 L 929.1963,29.4964 931.5963,26.7964 C 934.5963,23.2964 934.2963,21.3964 930.1963,18.5964 927.7963,16.9964 924.3963,16.2964 915.1963,15.3964 908.6963,14.7964 899.6963,13.2964 895.0963,12.0964 886.8963,9.9964 886.6963,9.9964 884.8963,11.7964 883.8963,12.7964 882.7963,15.5964 882.3963,17.8964 L 881.6963,22.1964 886.0963,22.1964 C 888.3963,22.1964 892.0963,22.6964 894.1963,23.2964 L 897.8963,24.2964 897.8963,30.0964 C 897.8963,36.0964 895.7963,53.4964 893.7963,63.6964 893.1963,66.9964 892.3963,74.3964 891.9963,80.1964 891.6963,85.9964 890.9963,90.6964 890.4963,90.6964 888.2963,90.6964 885.4963,84.4964 882.4963,73.0964 880.6963,66.2964 877.0963,53.4964 874.4963,44.6964 871.7963,35.8964 868.2963,23.6964 866.4963,17.6964 L 863.2963,6.6964 854.8963,5.8964 C 850.1963,5.4964 842.7963,4.4964 838.2963,3.6964 828.9963,1.9964 828.7963,1.9964 826.9963,3.0964 Z"></path><path style="fill:#d4d4d4;" d="M 684.3963,5.7964 C 681.0963,6.5964 672.6963,7.5964 665.6963,7.9964 658.4963,8.3964 652.4963,9.1964 651.8963,9.7964 651.1963,10.3964 650.4963,12.7964 650.1963,15.0964 L 649.5963,19.1964 658.6963,19.1964 C 668.7963,19.1964 667.9963,18.4964 669.7963,28.1964 673.5963,48.0964 677.0963,89.1964 675.4963,95.4964 674.8963,97.9964 674.3963,98.1964 669.9963,98.1964 667.3963,98.1964 663.7963,98.6964 662.0963,99.2964 659.2963,100.2964 658.9963,100.6964 659.5963,103.4964 660.7963,109.8964 662.5963,110.2964 678.8963,107.7964 684.0963,106.9964 692.2963,105.8964 697.0963,105.3964 707.6963,104.2964 710.8963,102.4964 710.8963,97.7964 710.8963,92.6964 709.1963,91.8964 700.6963,92.9964 696.6963,93.4964 693.1963,93.7964 692.9963,93.5964 692.2963,92.9964 687.0963,55.5964 685.3963,38.8964 683.7963,22.6964 683.7963,22.0964 685.5963,18.8964 687.2963,15.9964 687.9963,15.6964 693.1963,15.3964 698.3963,15.0964 698.9963,14.7964 700.4963,11.9964 701.7963,9.3964 701.8963,8.4964 700.7963,6.5964 699.7963,4.5964 698.7963,4.1964 694.9963,4.2964 692.4963,4.2964 687.6963,4.9964 684.3963,5.7964 Z"></path><path style="fill:#d4d4d4;" d="M 620.0963,11.8964 C 619.3963,12.1964 617.9963,14.0964 616.8963,16.1964 L 614.8963,20.0964 611.1963,18.4964 C 608.6963,17.3964 604.4963,16.7964 598.8963,16.7964 591.1963,16.6964 589.6963,16.9964 583.6963,19.9964 572.1963,25.6964 562.0963,38.8964 558.7963,52.6964 557.0963,59.8964 557.2963,74.5964 559.1963,81.8964 561.1963,89.4964 565.8963,98.9964 570.7963,105.4964 593.9963,136.4964 643.9963,124.1964 646.4963,86.8964 646.8963,81.1964 646.6963,78.9964 645.1963,76.2964 642.5963,71.2964 640.6963,70.3964 636.4963,72.4964 632.0963,74.4964 631.3963,76.9964 632.8963,84.9964 634.8963,96.2964 631.1963,102.3964 618.9963,107.9964 602.8963,115.3964 588.9963,109.2964 579.8963,90.7964 570.4963,71.7964 570.6963,50.3964 580.3963,37.5964 586.5963,29.4964 602.4963,26.3964 611.3963,31.6964 616.8963,34.8964 621.6963,42.3964 623.1963,50.1964 L 624.3963,56.1964 630.1963,56.1964 635.9963,56.1964 635.2963,49.8964 C 634.4963,41.5964 631.2963,26.1964 628.5963,17.8964 626.6963,11.8964 626.1963,11.1964 623.9963,11.2964 622.4963,11.2964 620.7963,11.5964 620.0963,11.8964 Z"></path><path style="fill:#d4d4d4;" d="M 982.3963,42.8964 C 964.2963,66.9964 932.2963,106.9964 929.8963,108.4964 927.3963,110.0964 926.8963,110.0964 924.2963,108.6964 920.7963,106.8964 917.9963,106.7964 915.6963,108.5964 914.2963,109.5964 914.0963,110.4964 914.9963,113.3964 916.2963,118.2964 917.6963,119.1964 925.9963,120.3964 933.0963,121.2964 935.8963,122.1964 948.3963,127.5964 958.0963,131.6964 962.6963,130.7964 963.1963,124.6964 963.4963,121.0964 959.6963,118.2964 953.2963,117.3964 948.7963,116.6964 948.3963,116.3964 948.6963,114.1964 949.0963,110.3964 952.4963,104.1964 956.6963,99.4964 L 960.3963,95.2964 970.3963,98.7964 C 975.8963,100.6964 983.0963,102.7964 986.3963,103.4964 L 992.3963,104.7964 992.6963,116.5964 992.9963,128.4964 988.6963,127.7964 C 976.9963,126.0964 975.3963,125.9964 973.3963,127.4964 971.4963,128.9964 971.4963,129.0964 973.0963,132.5964 975.2963,137.0964 978.3963,138.6964 990.6963,141.1964 1004.4963,143.9964 1014.9963,147.8964 1025.8963,154.1964 1030.9963,157.0964 1038.6963,160.9964 1043.1963,162.7964 1047.5963,164.5964 1058.8963,170.3964 1068.2963,175.4964 1086.3963,185.3964 1094.5963,189.1964 1097.5963,189.1964 1100.8963,189.0964 1104.5963,184.5964 1108.6963,175.8964 1110.8963,171.1964 1113.8963,165.7964 1115.2963,163.8964 1118.2963,159.8964 1118.4963,157.5964 1116.1963,152.6964 1114.3963,148.7964 1113.3963,148.4964 1108.5963,150.5964 1105.9963,151.6964 1104.8963,153.1964 1102.5963,158.9964 1098.7963,168.4964 1094.2963,172.5964 1088.4963,171.8964 1086.2963,171.5964 1078.7963,168.3964 1071.8963,164.8964 L 1059.3963,158.4964 1059.4963,154.6964 C 1059.5963,152.2964 1061.5963,147.1964 1065.0963,140.2964 1068.0963,134.4964 1075.2963,120.4964 1081.0963,109.1964 1091.4963,88.7964 1091.4963,88.6964 1094.5963,88.9964 1096.2963,89.1964 1098.4963,90.1964 1099.4963,91.2964 1102.8963,94.9964 1111.8963,93.1964 1111.8963,88.6964 1111.8963,84.9964 1106.7963,80.7964 1098.5963,77.8964 1094.4963,76.3964 1086.7963,72.9964 1081.4963,70.1964 1071.3963,64.9964 1065.2963,63.7964 1062.9963,66.5964 1060.6963,69.3964 1066.0963,75.3964 1071.8963,76.6964 1074.3963,77.1964 1074.8963,77.8964 1074.8963,80.1964 1074.8963,85.9964 1072.3963,93.6964 1067.1963,103.5964 1064.2963,109.0964 1058.6963,120.1964 1054.6963,128.1964 1050.3963,137.0964 1046.2963,143.8964 1044.1963,145.8964 1041.0963,148.7964 1040.5963,148.9964 1037.6963,147.9964 1035.8963,147.3964 1031.4963,145.1964 1027.8963,143.0964 1024.1963,141.0964 1018.2963,138.2964 1014.5963,136.9964 L 1007.8963,134.6964 1007.7963,129.6964 C 1007.7963,126.9964 1007.1963,106.8964 1006.4963,85.1964 1005.3963,51.2964 1004.9963,45.1964 1003.4963,42.3964 1001.4963,38.4964 996.7963,36.1964 991.1963,36.1964 987.6963,36.2964 986.9963,36.7964 982.3963,42.8964 Z M 992.8963,73.2964 L 992.8963,91.1964 989.4963,91.1964 C 987.5963,91.1964 983.1963,90.2964 979.6963,89.1964 976.2963,88.0964 972.3963,87.1964 971.0963,87.1964 969.7963,87.1964 968.8963,86.8964 969.0963,86.3964 969.6963,84.9964 988.1963,57.6964 989.6963,55.9964 990.4963,54.9964 991.5963,54.4964 991.9963,54.7964 992.4963,55.0964 992.8963,63.3964 992.8963,73.2964 Z"></path><path style="fill:#d4d4d4;" d="M 473.0963,59.4964 C 471.8963,60.6964 470.7963,63.0964 470.6963,64.6964 470.2963,68.9964 471.7963,142.5964 472.4963,149.3964 L 472.9963,155.0964 468.6963,157.2964 C 460.4963,161.3964 458.8963,164.6964 462.8963,168.9964 465.8963,172.1964 468.2963,171.7964 476.8963,166.6964 481.3963,164.0964 487.5963,161.4964 491.9963,160.3964 499.7963,158.3964 504.7963,156.1964 506.5963,153.9964 507.1963,153.2964 507.8963,150.6964 508.0963,148.2964 L 508.4963,143.9964 504.0963,144.5964 C 501.5963,144.8964 498.1963,146.0964 496.3963,147.1964 493.7963,148.7964 492.5963,148.9964 490.5963,148.2964 486.2963,146.5964 485.0963,142.3964 485.6963,130.0964 485.8963,125.9964 486.1963,125.2964 488.4963,124.7964 489.8963,124.3964 495.5963,122.0964 501.0963,119.5964 515.9963,112.8964 515.9963,112.8964 522.1963,119.2964 527.5963,124.8964 531.1963,132.2964 528.9963,132.9964 525.7963,134.0964 515.8963,141.5964 515.2963,143.3964 513.6963,148.5964 522.6963,148.5964 535.1963,143.2964 540.1963,141.0964 547.8963,137.9964 552.0963,136.1964 561.9963,132.1964 566.2963,129.1964 566.6963,126.3964 567.3963,121.3964 563.2963,120.0964 554.2963,122.2964 548.0963,123.8964 545.4963,122.5964 536.6963,113.2964 523.9963,99.9964 501.6963,74.5964 496.8963,67.8964 496.0963,66.7964 492.7963,63.8964 489.4963,61.4964 482.4963,56.2964 476.6963,55.5964 473.0963,59.4964 Z M 494.6963,87.4964 C 499.7963,93.3964 507.2963,104.1964 506.6963,104.7964 505.7963,105.5964 486.5963,112.1964 486.1963,111.7964 484.7963,110.3964 483.8963,102.1964 483.8963,90.3964 L 483.8963,76.9964 487.1963,79.6964 C 488.8963,81.1964 492.3963,84.6964 494.6963,87.4964 Z"></path><path style="fill:#d4d4d4;" d="M 403.7963,91.4964 C 398.5963,95.0964 390.2963,99.9964 385.2963,102.4964 378.9963,105.6964 375.8963,107.7964 375.0963,109.6964 372.4963,115.3964 374.4963,118.1964 380.9963,118.1964 383.3963,118.1964 385.2963,117.2964 387.8963,114.6964 L 391.4963,111.1964 395.0963,114.8964 C 401.7963,121.7964 427.9963,165.3964 426.4963,166.9964 425.7963,167.6964 418.4963,163.4964 410.5963,157.7964 406.3963,154.7964 395.7963,147.4964 387.0963,141.5964 378.4963,135.6964 368.8963,128.9964 365.8963,126.6964 357.8963,120.5964 357.2963,120.4964 349.7963,125.2964 346.2963,127.5964 339.6963,131.1964 335.1963,133.2964 330.7963,135.3964 326.8963,137.4964 326.5963,137.8964 326.2963,138.2964 325.7963,140.7964 325.3963,143.3964 L 324.6963,148.1964 327.9963,148.1964 C 329.7963,148.1964 333.1963,147.2964 335.5963,146.0964 341.2963,143.2964 344.8963,144.1964 349.5963,149.5964 351.6963,151.9964 355.5963,157.8964 358.2963,162.7964 360.9963,167.6964 366.9963,177.7964 371.5963,185.2964 378.7963,197.0964 382.8963,205.8964 382.8963,209.7964 382.8963,210.4964 380.8963,211.4964 378.3963,212.0964 373.6963,213.2964 371.8963,215.3964 371.8963,219.5964 371.8963,222.3964 374.3963,224.1964 378.0963,224.1964 379.3963,224.1964 384.4963,221.2964 389.3963,217.6964 394.3963,214.0964 401.7963,209.7964 405.8963,208.0964 414.9963,204.3964 416.8963,202.3964 416.8963,196.6964 L 416.8963,192.4964 412.6963,193.1964 C 410.2963,193.5964 407.0963,194.6964 405.3963,195.5964 400.6963,198.0964 396.6963,197.6964 394.7963,194.3964 393.8963,192.8964 388.0963,183.7964 381.8963,174.1964 371.0963,157.3964 363.3963,143.3964 364.3963,142.3964 364.6963,142.0964 367.4963,143.6964 370.5963,145.9964 373.7963,148.2964 384.6963,155.7964 394.8963,162.6964 405.0963,169.5964 418.1963,178.5964 424.1963,182.6964 430.0963,186.7964 435.9963,190.1964 437.1963,190.1964 440.5963,190.1964 448.8963,183.4964 448.8963,180.6964 448.8963,172.7964 442.5963,159.8964 427.9963,137.8964 418.9963,124.3964 407.8963,104.8964 407.8963,102.7964 407.8963,102.5964 410.0963,100.9964 412.8963,99.2964 418.2963,95.9964 419.7963,92.7964 418.2963,88.2964 416.7963,83.9964 413.8963,84.5964 403.7963,91.4964 Z"></path><path style="fill:#d4d4d4;" d="M 1210.0963,147.3964 C 1209.3963,148.0964 1208.8963,150.3964 1208.8963,152.5964 1208.8963,156.0964 1209.4963,157.0964 1213.3963,160.5964 L 1217.8963,164.6964 1216.6963,168.5964 C 1215.9963,170.7964 1212.4963,175.6964 1208.6963,180.0964 1204.8963,184.2964 1197.8963,192.5964 1193.0963,198.6964 1188.2963,204.6964 1181.5963,212.5964 1178.1963,216.0964 1172.2963,222.0964 1171.6963,222.3964 1168.3963,221.8964 1166.3963,221.5964 1163.3963,220.0964 1161.6963,218.6964 1157.5963,215.1964 1152.8963,215.4964 1151.6963,219.3964 1150.1963,223.8964 1152.5963,227.0964 1163.2963,234.4964 1168.6963,238.1964 1177.3963,245.0964 1182.5963,249.6964 1200.0963,265.2964 1207.1963,268.5964 1221.5963,267.9964 1229.9963,267.5964 1231.3963,267.2964 1239.5963,263.2964 1251.5963,257.2964 1260.8963,247.9964 1266.9963,235.7964 1270.9963,227.6964 1271.2963,226.2964 1271.6963,217.5964 1272.0963,209.1964 1271.7963,207.2964 1269.4963,200.7964 1266.0963,191.5964 1259.8963,183.6964 1249.3963,175.3964 1244.9963,171.8964 1236.2963,164.6964 1230.0963,159.3964 1214.3963,145.9964 1212.5963,144.8964 1210.0963,147.3964 Z M 1246.4963,189.5964 C 1254.4963,197.5964 1256.8963,202.7964 1256.8963,212.1964 1256.8963,220.2964 1254.5963,226.8964 1248.9963,234.8964 1243.3963,242.7964 1235.8963,249.2964 1228.0963,252.8964 1223.5963,254.9964 1221.5963,255.3964 1215.0963,254.9964 1205.2963,254.5964 1199.5963,251.8964 1191.3963,243.7964 1181.2963,233.8964 1180.5963,236.4964 1199.6963,213.1964 1208.8963,201.9964 1219.5963,189.4964 1223.5963,185.3964 L 1230.6963,178.0964 1235.0963,180.2964 C 1237.3963,181.4964 1242.5963,185.6964 1246.4963,189.5964 Z"></path><path style="fill:#d4d4d4;" d="M 243.3963,213.9964 C 232.2963,217.7964 228.0963,221.1964 209.7963,240.9964 203.0963,248.3964 195.7963,255.4964 193.6963,256.7964 189.9963,259.0964 189.8963,259.3964 189.8963,264.6964 L 189.8963,270.1964 193.2963,270.1964 C 195.8963,270.1964 197.9963,269.0964 201.9963,265.6964 204.8963,263.1964 207.5963,261.2964 207.9963,261.3964 209.7963,262.0964 260.8963,313.3964 260.8963,314.4964 260.8963,316.5964 257.2963,321.5964 250.3963,329.2964 246.7963,333.3964 242.9963,337.8964 242.0963,339.3964 241.1963,340.9964 239.5963,342.1964 238.5963,342.1964 235.3963,342.1964 219.5963,338.2964 196.8963,331.9964 165.9963,323.2964 150.6963,319.2964 148.3963,319.1964 147.0963,319.1964 144.7963,320.9964 142.5963,323.5964 L 138.8963,328.0964 140.7963,332.9964 C 143.2963,339.1964 147.6963,346.4964 154.7963,356.1964 157.8963,360.2964 167.4963,374.2964 176.0963,387.0964 L 191.8963,410.5964 189.2963,413.2964 C 186.8963,415.7964 184.4963,423.3964 185.6963,424.6964 185.9963,424.9964 188.0963,425.1964 190.3963,425.1964 195.2963,425.1964 196.8963,423.6964 202.2963,413.9964 204.2963,410.2964 208.1963,404.8964 210.8963,401.8964 216.3963,395.8964 218.8963,390.8964 218.8963,386.1964 218.8963,383.4964 218.5963,383.1964 216.3963,383.6964 214.9963,383.9964 212.7963,384.3964 211.4963,384.6964 210.0963,384.9964 207.5963,387.2964 205.4963,390.1964 203.4963,392.8964 201.4963,395.1964 200.9963,395.1964 199.4963,395.1964 192.2963,386.2964 189.3963,380.9964 L 186.7963,376.1964 195.9963,363.6964 C 201.0963,356.7964 205.8963,351.1964 206.7963,351.1964 208.2963,351.1964 227.9963,355.2964 228.6963,355.7964 228.8963,355.8964 226.9963,359.4964 224.4963,363.7964 219.2963,372.5964 219.0963,373.6964 221.7963,375.1964 227.1963,377.9964 230.5963,375.4964 239.6963,361.7964 248.2963,348.9964 274.0963,319.1964 288.5963,305.1964 306.2963,288.1964 311.5963,277.9964 310.5963,262.3964 310.1963,255.2964 309.4963,252.7964 306.3963,246.4964 299.6963,232.8964 284.6963,219.3964 270.9963,214.5964 262.7963,211.6964 250.7963,211.3964 243.3963,213.9964 Z M 269.3963,230.0964 C 280.3963,235.4964 291.3963,248.6964 295.8963,261.7964 298.3963,268.9964 298.3963,271.7964 295.7963,278.5964 292.3963,287.8964 279.3963,300.1964 273.0963,300.1964 271.3963,300.1964 267.2963,296.9964 258.8963,288.8964 252.4963,282.7964 243.1963,274.0964 238.3963,269.6964 228.6963,260.8964 221.8963,252.8964 221.8963,250.2964 221.8963,247.3964 231.0963,236.9964 237.5963,232.5964 248.1963,225.3964 258.1963,224.5964 269.3963,230.0964 Z M 178.5963,341.7964 C 185.0963,343.6964 190.6963,345.6964 191.1963,346.0964 193.1963,348.0964 187.3963,358.3964 183.0963,360.5964 177.1963,363.5964 176.0963,363.4964 174.2963,360.0964 173.3963,358.2964 170.5963,354.0964 167.9963,350.7964 165.3963,347.3964 162.1963,342.8964 160.8963,340.7964 L 158.4963,336.8964 162.6963,337.4964 C 164.9963,337.8964 172.0963,339.7964 178.5963,341.7964 Z"></path><path style="fill:#d4d4d4;" d="M 737.8963,224.6964 C 700.9963,228.2964 676.4963,237.3964 658.4963,254.1964 641.5963,269.8964 634.3963,291.7964 639.3963,311.6964 641.5963,320.3964 648.4963,333.8964 653.5963,339.2964 656.3963,342.2964 658.1963,345.2964 658.5963,347.3964 L 659.0963,350.8964 643.4963,351.5964 C 623.0963,352.4964 622.0963,352.1964 610.9963,341.8964 548.0963,283.4964 542.0963,278.1964 538.1963,278.1964 537.1963,278.1964 527.7963,282.8964 517.2963,288.5964 506.7963,294.2964 497.1963,299.2964 495.9963,299.6964 494.5963,300.0964 493.8963,300.9964 494.0963,302.1964 494.3963,303.8964 513.3963,323.5964 569.2963,379.9964 593.8963,404.7964 597.1963,407.2964 607.9963,409.2964 614.9963,410.5964 691.6963,411.6964 708.2963,410.6964 L 720.9963,409.9964 720.3963,396.7964 C 719.5963,379.2964 717.3963,363.0964 714.6963,355.1964 712.9963,349.9964 711.3963,347.5964 706.0963,342.1964 697.8963,333.9964 695.6963,329.1964 695.4963,319.2964 695.3963,310.2964 697.6963,304.5964 703.9963,298.2964 712.2963,289.9964 721.1963,285.7964 738.7963,281.9964 746.6963,280.1964 751.8963,279.8964 768.3963,279.7964 785.8963,279.7964 789.4963,279.9964 797.2963,281.9964 814.1963,286.1964 826.3963,294.4964 831.1963,304.8964 832.9963,308.7964 833.3963,311.4964 833.3963,319.6964 833.3963,330.9964 833.1963,331.4964 823.7963,342.5964 817.1963,350.4964 813.2963,357.7964 811.8963,365.0964 811.3963,367.9964 810.8963,379.3964 810.8963,390.3964 L 810.8963,410.2964 867.1963,409.9964 C 922.9963,409.6964 923.3963,409.6964 928.9963,407.3964 938.0963,403.6964 944.8963,398.0964 956.5963,384.4964 962.6963,377.4964 979.8963,359.5964 994.9963,344.7964 1010.0963,329.9964 1025.8963,314.0964 1030.1963,309.3964 L 1037.9963,300.8964 1032.3963,298.6964 C 1029.3963,297.3964 1020.8963,292.9964 1013.5963,288.8964 1006.3963,284.7964 998.0963,280.5964 995.1963,279.5964 L 989.9963,277.7964 981.1963,285.7964 C 976.3963,290.1964 960.0963,304.9964 945.0963,318.6964 930.0963,332.4964 915.4963,345.2964 912.5963,347.2964 905.3963,352.2964 894.2963,353.9964 879.9963,352.1964 870.3963,350.8964 869.8963,350.7964 870.4963,348.7964 870.8963,347.5964 873.1963,344.3964 875.5963,341.6964 881.3963,335.0964 887.5963,322.4964 889.4963,313.1964 892.6963,297.9964 889.7963,279.2964 882.2963,266.4964 878.9963,260.6964 870.1963,251.2964 863.7963,246.5964 858.1963,242.4964 845.5963,236.0964 837.3963,233.2964 812.6963,224.5964 773.1963,221.1964 737.8963,224.6964 Z"></path><path style="fill:#d4d4d4;" d="M 1299.5963,224.8964 C 1299.1963,225.1964 1298.8963,227.7964 1298.8963,230.4964 1298.8963,234.5964 1299.3963,235.9964 1301.8963,238.8964 1303.5963,240.6964 1304.8963,243.0964 1304.8963,244.0964 1304.8963,245.0964 1294.5963,255.2964 1279.9963,268.7964 1261.5963,285.7964 1254.0963,292.0964 1251.2963,292.9964 1248.1963,293.8964 1247.2963,293.8964 1246.9963,292.8964 1246.7963,292.2964 1245.0963,290.1964 1243.2963,288.3964 1240.6963,285.7964 1239.2963,285.1964 1235.8963,285.1964 L 1231.5963,285.1964 1232.1963,289.6964 C 1233.2963,297.6964 1235.5963,300.6964 1249.7963,313.0964 1253.7963,316.5964 1260.1963,323.6964 1263.8963,328.6964 1272.0963,339.7964 1285.6963,355.1964 1287.2963,355.1964 1289.5963,355.1964 1302.5963,345.6964 1308.9963,339.2964 1319.1963,329.0964 1321.2963,323.0964 1314.9963,321.6964 1310.6963,320.7964 1307.1963,322.6964 1299.1963,330.3964 L 1291.7963,337.5964 1288.0963,335.6964 C 1280.6963,331.6964 1261.8963,311.5964 1261.8963,307.6964 1261.8963,306.2964 1280.3963,288.2964 1284.5963,285.4964 1287.1963,283.7964 1287.1963,283.7964 1291.2963,288.2964 1293.5963,290.7964 1296.0963,294.0964 1296.8963,295.5964 1298.2963,298.2964 1298.1963,298.3964 1292.0963,303.9964 1284.3963,311.0964 1283.5963,313.8964 1288.1963,316.7964 1291.3963,318.8964 1291.5963,318.8964 1295.0963,317.0964 1296.9963,316.0964 1302.8963,311.0964 1307.9963,305.9964 1313.1963,300.8964 1320.1963,294.0964 1323.6963,290.8964 1332.9963,282.1964 1333.1963,278.1964 1324.1963,278.1964 1320.5963,278.1964 1319.1963,278.8964 1314.8963,282.6964 L 1309.7963,287.2964 1305.6963,284.9964 C 1303.3963,283.6964 1300.5963,281.3964 1299.4963,279.8964 L 1297.3963,277.0964 1299.9963,272.3964 C 1302.9963,266.8964 1309.2963,261.7964 1314.8963,260.0964 1319.8963,258.5964 1319.9963,258.6964 1332.5963,274.4964 1340.0963,283.8964 1341.8963,286.6964 1341.2963,288.3964 1340.9963,289.5964 1337.5963,293.5964 1333.7963,297.2964 1329.9963,300.9964 1326.1963,305.5964 1325.2963,307.6964 1323.8963,311.0964 1323.8963,311.5964 1325.4963,313.2964 1328.8963,317.0964 1332.4963,315.7964 1340.2963,307.8964 1344.1963,303.8964 1350.0963,298.7964 1353.2963,296.6964 1356.5963,294.4964 1359.6963,291.8964 1360.2963,290.9964 1362.0963,287.9964 1358.2963,282.5964 1343.2963,267.1964 1335.5963,259.1964 1324.8963,247.4964 1319.5963,240.9964 1307.6963,226.5964 1302.1963,222.1964 1299.5963,224.8964 Z"></path><path style="fill:#d4d4d4;" d="M 1373.3963,309.1964 C 1372.1963,309.5964 1370.6963,310.7964 1369.8963,311.6964 1368.5963,313.1964 1368.7963,313.9964 1371.1963,318.2964 1372.6963,320.9964 1373.8963,324.1964 1373.8963,325.4964 1373.8963,329.0964 1362.3963,339.2964 1346.8963,349.3964 1331.4963,359.3964 1313.5963,369.1964 1310.6963,369.1964 1309.8963,369.1964 1308.2963,367.1964 1307.0963,364.6964 1304.8963,360.1964 1301.9963,358.1964 1297.7963,358.1964 1295.0963,358.1964 1294.3963,360.5964 1295.6963,365.0964 1296.8963,368.7964 1300.8963,375.3964 1318.9963,402.3964 1324.1963,410.1964 1329.9963,418.8964 1331.6963,421.6964 1334.8963,426.9964 1340.3963,432.5964 1342.8963,433.3964 1344.8963,434.0964 1348.4963,432.1964 1354.2963,427.3964 1356.8963,425.1964 1362.1963,421.6964 1366.0963,419.5964 1371.1963,416.7964 1373.5963,414.7964 1374.6963,412.3964 1376.5963,408.5964 1376.0963,407.9964 1369.5963,405.9964 1365.0963,404.5964 1361.8963,405.8964 1354.9963,411.5964 1352.6963,413.5964 1349.5963,415.4964 1348.2963,415.7964 1344.4963,416.7964 1339.4963,412.7964 1333.0963,403.8964 1326.2963,394.4964 1324.3963,391.0964 1323.5963,386.3964 1322.9963,383.2964 1323.1963,382.8964 1330.9963,377.1964 1335.3963,373.8964 1345.3963,366.9964 1353.1963,361.8964 1381.4963,343.2964 1384.9963,341.7964 1389.1963,346.7964 1390.3963,348.1964 1392.5963,350.7964 1393.9963,352.4964 L 1396.5963,355.4964 1399.7963,353.2964 C 1401.4963,352.0964 1402.8963,350.3964 1402.8963,349.5964 1402.8963,347.4964 1400.1963,342.3964 1396.1963,337.1964 1394.2963,334.6964 1389.5963,327.4964 1385.7963,321.0964 1380.1963,311.4964 1377.0963,307.6964 1375.5963,308.2964 1375.4963,308.2964 1374.4963,308.6964 1373.3963,309.1964 Z"></path><path style="fill:#d4d4d4;" d="M 436.6963,339.4964 C 429.1963,345.0964 420.1963,351.7964 416.6963,354.2964 413.0963,356.7964 409.2963,360.1964 408.0963,361.8964 L 405.9963,364.7964 449.6963,409.3964 C 473.6963,433.8964 501.2963,461.9964 510.8963,471.7964 529.6963,491.0964 541.2963,500.4964 552.3963,505.8964 564.9963,511.7964 568.3963,512.1964 618.6963,512.1964 L 663.8963,512.1964 663.8963,581.5964 C 663.8963,619.6964 663.5963,652.3964 663.2963,654.0964 662.7963,656.2964 661.6963,657.7964 659.5963,658.8964 656.8963,660.2964 654.0963,660.2964 632.9963,659.1964 619.9963,658.4964 592.7963,657.5964 572.3963,657.1964 541.0963,656.5964 534.5963,656.2964 529.8963,654.7964 522.8963,652.4964 518.4963,649.1964 515.5963,643.8964 513.4963,639.7964 513.3963,638.7964 513.1963,606.1964 512.9963,555.1964 513.5963,556.5964 475.6963,520.0964 462.2963,507.2964 431.8963,477.3964 407.9963,453.6964 L 364.6963,410.6964 357.4963,418.3964 C 353.5963,422.5964 344.7963,431.9964 337.9963,439.0964 L 325.6963,452.1964 328.5963,453.2964 C 330.2963,453.7964 333.7963,456.7964 336.4963,459.9964 339.1963,463.0964 347.8963,472.3964 355.8963,480.6964 363.7963,488.8964 380.8963,506.6964 393.8963,520.1964 441.8963,569.9964 449.0963,577.7964 450.0963,580.1964 453.8963,590.0964 454.3963,595.9964 454.3963,638.6964 454.4963,677.9964 455.2963,707.0964 456.4963,713.3964 L 457.0963,716.1964 587.4963,716.1964 717.8963,716.1964 717.8963,586.6964 717.8963,457.1964 662.1963,457.1964 C 618.6963,457.1964 604.2963,456.8964 596.8963,455.6964 578.7963,452.9964 568.1963,446.7964 552.8963,430.0964 541.0963,417.2964 532.2963,408.4964 502.2963,379.5964 462.1963,340.9964 458.1963,337.0964 455.2963,333.1964 453.6963,330.9964 451.9963,329.1964 451.3963,329.1964 450.8963,329.1964 444.2963,333.8964 436.6963,339.4964 Z"></path><path style="fill:#d4d4d4;" d="M 1017.8963,388.0964 C 953.8963,452.4964 957.0963,449.6964 940.0963,454.4964 932.6963,456.4964 930.0963,456.5964 871.6963,456.9964 L 810.8963,457.2964 810.8963,585.5964 C 810.8963,683.9964 811.1963,714.0964 812.0963,714.9964 813.5963,716.4964 1070.4963,716.6964 1072.8963,715.1964 1074.1963,714.3964 1074.4963,705.9964 1074.9963,652.9964 1075.5963,586.9964 1075.6963,585.2964 1081.0963,576.2964 1082.2963,574.2964 1110.1963,545.5964 1143.1963,512.4964 L 1203.1963,452.2964 1199.5963,447.9964 C 1186.0963,431.7964 1174.5963,419.1964 1169.9963,415.3964 L 1164.5963,410.9964 1128.9963,446.3964 C 1109.3963,465.8964 1078.2963,496.7964 1059.7963,515.0964 1037.4963,537.0964 1025.1963,549.9964 1023.4963,553.1964 1018.5963,562.1964 1017.7963,568.7964 1017.5963,602.0964 1017.3963,631.2964 1017.2963,632.9964 1015.0963,638.2964 1012.2963,645.1964 1008.0963,651.1964 1003.9963,654.1964 1001.0963,656.1964 999.1963,656.3964 978.5963,657.1964 966.3963,657.6964 936.4963,658.3964 912.1963,658.7964 L 867.8963,659.4964 867.8963,585.8964 867.8963,512.2964 916.1963,511.8964 C 967.5963,511.4964 968.0963,511.4964 979.0963,506.2964 982.6963,504.4964 999.9963,487.7964 1054.0963,433.4964 1092.7963,394.7964 1124.4963,362.8964 1124.6963,362.6964 1124.8963,362.5964 1119.4963,358.5964 1112.6963,353.8964 1105.8963,349.2964 1095.4963,341.7964 1089.3963,337.2964 1083.3963,332.8964 1077.9963,329.1964 1077.3963,329.2964 1076.8963,329.2964 1050.0963,355.7964 1017.8963,388.0964 Z"></path><path style="fill:#d4d4d4;" d="M 108.7963,401.6964 C 98.8963,405.2964 92.1963,410.5964 86.0963,419.3964 81.5963,425.9964 60.8963,470.0964 60.8963,473.1964 60.8963,474.5964 61.4963,476.6964 62.2963,477.6964 64.4963,480.6964 67.9963,478.3964 71.4963,471.6964 L 74.3963,465.9964 79.1963,466.4964 C 82.5963,466.7964 88.4963,469.1964 99.1963,474.4964 107.5963,478.6964 117.7963,483.4964 121.8963,485.1964 129.5963,488.4964 138.2963,493.0964 143.1963,496.4964 L 145.9963,498.3964 143.3963,502.8964 C 141.7963,505.7964 140.8963,508.9964 140.8963,511.7964 L 140.8963,516.1964 144.6963,516.1964 C 146.7963,516.1964 149.2963,515.5964 150.1963,514.8964 151.0963,514.2964 153.8963,508.6964 156.3963,502.6964 158.8963,496.5964 164.2963,485.7964 168.3963,478.5964 L 175.8963,465.4964 176.8963,454.6964 C 178.1963,441.3964 177.1963,435.7964 172.3963,428.4964 164.6963,416.8964 151.3963,406.9964 137.3963,402.5964 128.7963,399.8964 114.9963,399.3964 108.7963,401.6964 Z M 127.0963,416.6964 C 136.3963,418.5964 149.1963,424.8964 155.6963,430.6964 162.1963,436.5964 166.2963,444.6964 166.2963,451.6964 166.2963,456.9964 161.6963,468.1964 155.4963,478.0964 152.8963,482.1964 152.4963,482.3964 148.8963,481.8964 146.7963,481.5964 141.9963,479.6964 138.2963,477.5964 134.4963,475.4964 124.8963,470.6964 116.8963,466.8964 96.7963,457.4964 85.8963,451.0964 85.8963,448.8964 85.8963,445.8964 92.6963,432.1964 96.9963,426.3964 105.0963,415.6964 111.6963,413.4964 127.0963,416.6964 Z"></path><path style="fill:#d4d4d4;" d="M 1424.3963,468.6964 C 1412.0963,471.3964 1401.6963,476.6964 1392.7963,484.8964 1385.3963,491.7964 1381.1963,499.0964 1379.1963,508.6964 1377.8963,515.3964 1377.8963,516.9964 1379.1963,523.6964 1382.1963,538.2964 1389.2963,548.7964 1400.0963,554.6964 1404.4963,557.0964 1406.8963,557.6964 1414.1963,557.9964 1423.3963,558.4964 1428.7963,557.1964 1433.7963,553.2964 1436.0963,551.5964 1436.0963,551.1964 1434.8963,548.2964 1432.7963,543.0964 1430.6963,542.1964 1424.5963,543.7964 1413.3963,546.7964 1403.2963,544.1964 1397.0963,536.5964 1387.8963,525.4964 1390.8963,506.7964 1403.6963,495.0964 1413.4963,486.0964 1424.8963,481.9964 1440.3963,481.9964 1451.0963,481.8964 1456.1963,483.1964 1461.6963,487.0964 1469.1963,492.5964 1474.6963,508.1964 1471.9963,516.3964 1470.3963,521.1964 1467.4963,523.6964 1457.6963,528.5964 1448.3963,533.2964 1446.5963,535.7964 1448.9963,540.7964 1450.8963,544.6964 1454.1963,544.8964 1461.9963,541.5964 1465.4963,540.0964 1473.0963,537.1964 1478.8963,535.1964 1491.2963,530.6964 1494.3963,527.9964 1491.8963,523.4964 1490.9963,521.8964 1489.0963,520.4964 1487.0963,519.9964 L 1483.8963,519.0964 1483.8963,512.3964 C 1483.8963,504.0964 1481.6963,493.7964 1478.8963,488.1964 1474.2963,479.1964 1464.2963,471.7964 1452.1963,468.6964 1445.2963,466.8964 1432.5963,466.8964 1424.3963,468.6964 Z"></path><path style="fill:#d4d4d4;" d="M 56.3963,490.5964 C 51.9963,492.4964 51.2963,493.6964 48.4963,505.1964 47.0963,510.9964 44.0963,519.4964 41.8963,523.9964 37.3963,533.3964 37.0963,535.1964 39.6963,537.3964 44.6963,541.8964 48.6963,539.7964 51.3963,531.2964 L 53.0963,525.9964 58.2963,526.5964 C 66.7963,527.7964 123.7963,547.6964 126.6963,550.5964 126.9963,550.8964 126.1963,553.6964 124.9963,556.7964 122.8963,562.3964 122.8963,562.3964 124.7963,566.7964 125.8963,569.1964 126.9963,571.1964 127.1963,571.1964 127.3963,571.1964 128.8963,570.6964 130.5963,570.1964 133.7963,568.9964 134.7963,566.8964 137.3963,555.7964 138.1963,551.9964 140.8963,543.7964 143.3963,537.5964 145.8963,531.3964 147.8963,525.2964 147.8963,524.1964 147.8963,520.8964 145.3963,518.9964 142.1963,519.7964 137.8963,520.7964 136.0963,522.9964 135.2963,527.8964 134.9963,530.3964 133.9963,532.5964 133.1963,532.8964 128.0963,534.8964 59.8963,512.8964 59.8963,509.1964 59.8963,508.7964 60.5963,506.1964 61.4963,503.1964 63.0963,497.6964 62.7963,492.1964 60.5963,490.3964 59.7963,489.6964 58.4963,489.7964 56.3963,490.5964 Z"></path><path style="fill:#d4d4d4;" d="M 292.8963,512.6964 L 281.5963,535.1964 285.8963,540.7964 C 288.2963,543.8964 294.7963,551.2964 300.3963,557.0964 316.4963,573.8964 337.3963,596.8964 345.5963,606.8964 356.7963,620.6964 359.3963,629.9964 356.5963,646.6964 L 355.2963,654.6964 351.7963,654.9964 C 348.6963,655.2964 347.9963,654.8964 345.7963,651.4964 338.5963,640.2964 314.4963,632.5964 294.8963,635.1964 279.8963,637.1964 270.6963,641.4964 260.9963,650.9964 240.6963,671.0964 229.9963,704.9964 228.1963,755.6964 226.8963,793.4964 232.6963,826.0964 245.1963,850.6964 249.2963,858.7964 251.7963,862.1964 258.2963,868.6964 271.1963,881.4964 284.0963,887.1964 300.6963,887.1964 315.8963,887.1964 328.7963,882.5964 346.6963,870.7964 350.7963,868.1964 354.1963,866.1964 354.3963,866.3964 354.5963,866.5964 355.2963,870.0964 355.9963,874.1964 357.5963,884.6964 356.6963,899.4964 354.1963,905.1964 352.8963,908.1964 345.0963,917.0964 330.2963,932.6964 291.4963,973.4964 289.0963,976.0964 285.9963,980.8964 281.3963,987.7964 281.7963,990.9964 288.4963,1001.7964 294.4963,1011.2964 303.8963,1029.5964 303.8963,1031.8964 303.8963,1035.7964 308.3963,1031.7964 344.8963,995.1964 359.9963,979.9964 379.2963,960.8964 387.7963,952.5964 404.9963,935.8964 410.8963,928.6964 413.4963,920.8964 415.5963,915.0964 415.5963,913.7964 415.1963,845.8964 L 414.8963,807.1964 391.3963,807.1964 C 363.7963,807.1964 360.9963,807.7964 351.2963,816.4964 343.2963,823.6964 340.2963,825.5964 334.3963,827.4964 320.0963,832.0964 308.8963,830.2964 300.8963,822.2964 284.9963,806.3964 278.6963,763.2964 287.2963,729.9964 292.1963,711.3964 299.4963,700.0964 310.3963,694.3964 314.7963,691.9964 316.5963,691.6964 324.3963,691.6964 335.0963,691.7964 337.1963,692.6964 344.7963,700.6964 350.4963,706.5964 354.1963,708.8964 362.3963,711.4964 369.8963,713.9964 389.4963,716.1964 403.0963,716.1964 L 415.0963,716.1964 414.3963,702.8964 C 413.9963,695.2964 414.2963,679.5964 415.0963,665.6964 417.5963,618.6964 416.8963,610.3964 408.6963,593.1964 405.2963,585.9964 403.3963,583.4964 396.1963,576.6964 391.4963,572.2964 371.8963,552.8964 352.4963,533.5964 320.7963,501.7964 308.0963,490.1964 305.1963,490.1964 304.6963,490.1964 299.0963,500.2964 292.8963,512.6964 Z"></path><path style="fill:#d4d4d4;" d="M 1217.0963,495.1964 C 1213.7963,497.8964 1210.1963,501.3964 1209.0963,502.8964 1207.8963,504.3964 1200.7963,511.7964 1193.2963,519.1964 1185.6963,526.5964 1175.6963,536.6964 1170.9963,541.4964 1166.3963,546.2964 1156.1963,555.7964 1148.4963,562.4964 1132.7963,576.2964 1125.0963,584.8964 1120.8963,593.7964 1115.3963,605.0964 1114.9963,609.4964 1114.4963,662.4964 L 1113.8963,711.0964 1116.2963,713.8964 1118.6963,716.6964 1132.5963,716.4964 C 1141.0963,716.3964 1150.6963,715.5964 1157.5963,714.3964 1169.9963,712.1964 1172.6963,710.8964 1184.4963,700.8964 1193.2963,693.4964 1200.0963,690.7964 1208.8963,691.4964 1212.4963,691.6964 1216.8963,692.5964 1218.5963,693.5964 1234.7963,701.8964 1245.1963,726.3964 1246.5963,759.1964 1247.6963,786.6964 1241.8963,808.2964 1230.4963,819.6964 1223.5963,826.5964 1217.2963,829.3964 1207.5963,829.9964 1200.0963,830.3964 1199.3963,830.2964 1192.5963,826.7964 1188.5963,824.7964 1182.4963,820.6964 1178.8963,817.6964 1169.5963,809.8964 1168.3963,809.0964 1164.1963,808.0964 1162.0963,807.5964 1150.0963,807.1964 1137.3963,807.1964 L 1114.3963,807.1964 1114.4963,859.4964 C 1114.6963,913.8964 1114.9963,919.3964 1119.0963,927.6964 1120.2963,930.2964 1138.8963,949.4964 1171.9963,982.3964 1199.9963,1010.3964 1223.2963,1033.1964 1223.8963,1033.1964 1224.3963,1033.1964 1227.7963,1027.4964 1231.4963,1020.3964 1235.0963,1013.3964 1240.5963,1003.1964 1243.4963,997.7964 L 1248.8963,987.7964 1246.1963,983.7964 C 1244.5963,981.5964 1238.6963,974.7964 1232.8963,968.6964 1208.4963,942.9964 1178.2963,908.7964 1176.6963,905.2964 1173.9963,899.3964 1172.6963,887.8964 1173.4963,876.3964 1174.1963,866.3964 1174.1963,866.1964 1176.5963,866.1964 1178.1963,866.1964 1180.5963,867.6964 1183.2963,870.3964 1188.5963,875.8964 1196.6963,880.6964 1205.9963,883.8964 1219.4963,888.5964 1240.8963,887.9964 1252.2963,882.5964 1258.0963,879.8964 1269.7963,870.3964 1275.9963,863.4964 1290.3963,847.4964 1299.3963,817.8964 1302.0963,777.7964 1304.8963,734.4964 1297.5963,694.6964 1281.7963,667.7964 1275.5963,657.2964 1263.0963,645.2964 1253.5963,640.7964 1239.8963,634.1964 1223.7963,632.6964 1209.7963,636.7964 1202.4963,638.8964 1188.0963,646.7964 1184.3963,650.6964 1182.4963,652.5964 1179.7963,654.1964 1177.5963,654.5964 L 1173.8963,655.2964 1173.8963,639.4964 C 1173.8963,630.7964 1174.3963,622.0964 1174.8963,620.0964 1176.2963,615.1964 1177.6963,613.4964 1211.8963,575.9964 1228.1963,558.2964 1242.3963,542.3964 1243.6963,540.7964 1246.5963,537.0964 1246.5963,530.5964 1243.7963,524.8964 1238.8963,515.0964 1224.5963,490.1964 1223.7963,490.1964 1223.3963,490.1964 1220.2963,492.3964 1217.0963,495.1964 Z"></path><path style="fill:#d4d4d4;" d="M 27.2963,563.6964 C 26.9963,565.0964 26.9963,567.6964 27.2963,569.4964 27.7963,571.9964 27.0963,574.2964 23.8963,580.6964 20.1963,587.9964 19.8963,589.5964 19.2963,599.1964 18.1963,617.0964 22.0963,624.6964 36.0963,631.7964 50.6963,639.1964 61.4963,632.8964 74.7963,609.0964 88.1963,585.0964 89.2963,584.0964 98.3963,586.0964 107.8963,588.1964 113.0963,594.4964 113.1963,603.6964 113.3963,613.5964 109.1963,622.3964 101.4963,628.5964 97.8963,631.5964 97.2963,631.6964 89.9963,631.2964 71.2963,630.4964 71.5963,630.3964 70.4963,633.2964 69.2963,636.7964 70.3963,640.8964 72.9963,642.1964 74.0963,642.7964 77.7963,643.7964 81.1963,644.2964 84.5963,644.8964 90.5963,646.1964 94.3963,647.3964 98.2963,648.4964 104.4963,649.4964 108.1963,649.5964 114.1963,649.6964 115.2963,649.3964 116.8963,647.3964 119.2963,644.4964 118.5963,642.5964 114.1963,640.3964 L 110.7963,638.5964 114.9963,632.6964 C 122.6963,621.6964 124.1963,617.3964 124.2963,604.7964 124.3963,594.5964 124.0963,593.1964 121.4963,587.3964 116.7963,577.2964 108.2963,571.2964 97.2963,570.3964 89.5963,569.7964 82.6963,571.9964 76.9963,576.7964 71.8963,581.1964 69.2963,585.6964 63.8963,599.4964 61.5963,605.3964 58.7963,611.3964 57.5963,612.7964 53.2963,618.2964 41.5963,620.0964 36.4963,616.0964 26.3963,608.1964 29.0963,586.7964 40.9963,580.6964 44.4963,578.7964 48.2963,578.5964 58.0963,579.5964 L 65.7963,580.3964 67.5963,576.7964 C 68.8963,573.9964 69.0963,572.6964 68.2963,571.3964 65.8963,567.5964 43.5963,561.1964 32.6963,561.1964 28.3963,561.1964 27.8963,561.4964 27.2963,563.6964 Z"></path><path style="fill:#d4d4d4;" d="M 1452.8963,566.6964 C 1428.3963,572.1964 1412.9963,585.4964 1411.1963,602.5964 1410.4963,609.6964 1414.2963,629.1964 1417.6963,635.4964 1422.7963,644.9964 1436.5963,651.8964 1452.7963,652.8964 1478.6963,654.5964 1504.7963,642.2964 1513.6963,624.1964 1516.0963,619.1964 1516.3963,617.5964 1516.3963,607.6964 1516.3963,598.4964 1515.9963,595.7964 1514.0963,590.9964 1509.0963,578.5964 1501.4963,571.0964 1490.5963,567.5964 1483.2963,565.2964 1461.4963,564.7964 1452.8963,566.6964 Z M 1487.8963,582.0964 C 1490.8963,583.1964 1495.0963,585.5964 1497.2963,587.3964 1501.8963,591.1964 1505.8963,599.1964 1505.8963,604.6964 1505.8963,621.3964 1481.0963,638.0964 1456.2963,638.1964 1436.4963,638.1964 1422.8963,626.9964 1422.8963,610.3964 1422.8963,597.7964 1435.8963,586.1964 1455.6963,581.1964 1465.7963,578.5964 1479.8963,578.9964 1487.8963,582.0964 Z"></path><path style="fill:#d4d4d4;" d="M 100.4963,656.1964 C 98.2963,658.8964 97.5963,661.2964 96.6963,670.1964 L 96.3963,672.6964 82.6963,672.3964 C 67.3963,672.0964 65.7963,672.4964 59.9963,678.5964 55.8963,682.7964 54.8963,683.0964 54.8963,679.8964 54.8963,674.0964 46.4963,666.2964 37.8963,664.1964 23.5963,660.7964 11.5963,669.1964 7.2963,685.6964 5.5963,691.9964 3.3963,737.6964 4.2963,745.3964 5.0963,751.7964 5.6963,752.0964 11.3963,749.7964 15.1963,748.1964 15.4963,746.8964 13.8963,741.1964 11.4963,732.7964 19.2963,731.7964 56.8963,735.5964 86.0963,738.5964 89.2963,739.2964 91.5963,742.8964 93.1963,745.2964 93.1963,745.6964 91.5963,750.0964 89.5963,755.6964 90.2963,756.6964 96.9963,757.5964 102.6963,758.3964 102.6963,758.4964 103.3963,741.6964 103.6963,735.0964 104.6963,725.7964 105.5963,720.8964 107.1963,712.3964 107.1963,712.0964 105.1963,709.3964 100.8963,703.4964 95.5963,706.3964 94.3963,715.2964 93.1963,725.2964 94.2963,724.5964 80.3963,723.9964 65.7963,723.2964 62.8963,722.2964 61.0963,716.6964 59.2963,711.4964 60.0963,699.3964 62.5963,694.4964 66.0963,687.3964 67.9963,686.6964 86.1963,686.4964 L 102.2963,686.3964 106.2963,679.4964 C 109.6963,673.7964 110.3963,671.5964 110.6963,666.1964 111.0963,659.9964 110.8963,659.3964 108.0963,656.3964 106.3963,654.5964 104.5963,653.1964 104.0963,653.1964 103.4963,653.1964 101.8963,654.5964 100.4963,656.1964 Z M 38.2963,678.5964 C 42.1963,680.1964 46.1963,685.0964 47.8963,690.5964 49.1963,694.4964 48.7963,711.7964 47.2963,718.4964 46.6963,720.9964 46.3963,721.2964 43.9963,720.4964 42.5963,720.0964 36.7963,719.6964 31.1963,719.6964 17.5963,719.6964 17.4963,719.5964 17.0963,705.0964 16.7963,696.4964 16.9963,693.0964 18.2963,689.6964 22.3963,679.1964 29.7963,674.9964 38.2963,678.5964 Z"></path><path style="fill:#d4d4d4;" d="M 1511.6963,672.3964 L 1511.3963,680.6964 1497.8963,682.4964 C 1488.8963,683.6964 1476.6963,684.3964 1461.0963,684.4964 L 1437.6963,684.6964 1435.2963,681.7964 C 1433.1963,679.3964 1432.8963,678.2964 1433.3963,674.9964 1434.9963,665.7964 1424.6963,664.1964 1422.3963,673.1964 1422.0963,674.5964 1422.4963,678.9964 1423.3963,682.9964 1424.2963,687.6964 1424.8963,695.5964 1424.8963,704.7964 L 1424.8963,719.1964 1430.3963,719.1964 1435.8963,719.1964 1435.8963,713.7964 C 1435.8963,705.9964 1437.4963,702.2964 1441.7963,700.2964 1444.7963,698.9964 1449.8963,698.6964 1473.3963,698.4964 L 1501.3963,698.2964 1494.3963,701.6964 C 1490.5963,703.4964 1477.4963,708.2964 1465.3963,712.1964 1453.2963,716.1964 1439.3963,720.8964 1434.3963,722.5964 L 1425.3963,725.8964 1425.0963,732.9964 1424.7963,739.9964 1430.5963,742.1964 C 1435.9963,744.1964 1442.6963,745.9964 1483.3963,755.9964 1492.1963,758.1964 1500.7963,760.5964 1502.3963,761.2964 1505.3963,762.5964 1505.3963,762.5964 1499.3963,763.2964 1496.0963,763.6964 1482.1963,764.2964 1468.3963,764.6964 1439.2963,765.4964 1438.2963,765.1964 1438.5963,758.5964 1438.9963,752.3964 1438.1963,750.6964 1434.3963,748.8964 1432.3963,747.9964 1430.3963,747.1964 1429.9963,747.1964 1429.4963,747.1964 1428.5963,749.4964 1427.8963,752.2964 1426.8963,756.1964 1426.8963,759.3964 1427.8963,766.9964 1430.0963,784.1964 1427.8963,815.4964 1423.1963,834.3964 1420.1963,846.3964 1420.2963,846.7964 1426.9963,850.2964 1429.0963,851.2964 1430.9963,852.1964 1431.2963,852.1964 1431.4963,852.1964 1431.9963,849.3964 1432.3963,845.8964 1433.8963,831.3964 1434.6963,830.6964 1444.5963,835.6964 1448.2963,837.5964 1452.6963,840.1964 1454.1963,841.3964 L 1457.0963,843.6964 1455.4963,852.1964 C 1454.5963,856.8964 1453.5963,864.0964 1453.0963,868.1964 L 1452.3963,875.6964 1447.3963,876.3964 C 1444.6963,876.7964 1439.3963,877.3964 1435.7963,877.7964 L 1429.1963,878.4964 1428.5963,870.2964 C 1427.8963,861.1964 1426.6963,858.1964 1423.8963,858.1964 1420.3963,858.1964 1418.8963,863.5964 1415.8963,885.9964 1412.6963,910.7964 1410.6963,919.3964 1404.1963,936.4964 1400.4963,946.4964 1399.5963,949.9964 1399.4963,955.6964 L 1399.3963,962.6964 1403.7963,962.6964 C 1408.6963,962.6964 1408.6963,962.6964 1410.3963,952.7964 L 1410.9963,948.8964 1417.0963,949.5964 C 1420.4963,949.8964 1428.1963,951.8964 1434.2963,953.9964 L 1445.3963,957.7964 1445.0963,961.1964 C 1444.9963,963.0964 1442.5963,971.3964 1439.8963,979.6964 1437.1963,987.8964 1434.6963,995.7964 1434.4963,997.1964 L 1433.9963,999.7964 1418.2963,994.5964 C 1409.7963,991.7964 1402.3963,988.9964 1401.8963,988.5964 1401.4963,988.0964 1401.7963,984.3964 1402.6963,980.2964 L 1404.1963,972.7964 1401.4963,970.4964 C 1395.8963,965.6964 1392.7963,968.3964 1390.2963,980.2964 1388.2963,990.2964 1386.1963,996.4964 1382.2963,1004.3964 1380.3963,1008.0964 1378.8963,1011.9964 1378.8963,1013.0964 1378.8963,1014.1964 1380.4963,1016.2964 1382.3963,1017.7964 L 1385.9963,1020.4964 1388.7963,1017.7964 C 1390.5963,1015.9964 1391.9963,1013.2964 1392.7963,1009.6964 1393.5963,1005.9964 1394.4963,1004.1964 1395.5963,1004.1964 1401.7963,1004.1964 1465.0963,1024.1964 1468.1963,1027.1964 1468.6963,1027.5964 1467.8963,1031.2964 1466.4963,1035.2964 1464.0963,1042.1964 1463.9963,1042.7964 1465.5963,1043.8964 1466.4963,1044.5964 1469.1963,1045.1964 1471.4963,1045.1964 L 1475.6963,1045.1964 1477.7963,1037.3964 C 1478.9963,1033.0964 1479.8963,1028.9964 1479.8963,1028.1964 1479.8963,1027.4964 1481.6963,1022.3964 1483.8963,1016.9964 1486.3963,1010.6964 1487.8963,1005.3964 1487.8963,1002.6964 1487.8963,996.0964 1487.2963,995.2964 1483.4963,996.1964 1478.5963,997.2964 1478.0963,997.7964 1476.3963,1003.4964 1473.8963,1012.0964 1474.1963,1011.8964 1464.6963,1009.1964 1460.0963,1007.9964 1453.8963,1006.3964 1450.8963,1005.6964 1444.3963,1004.2964 1444.3963,1005.4964 1450.3963,987.6964 1452.7963,980.4964 1454.9963,972.8964 1455.3963,970.6964 1456.5963,963.4964 1456.7963,963.1964 1460.1963,963.1964 1461.9963,963.1964 1468.2963,964.5964 1474.1963,966.3964 L 1485.0963,969.6964 1484.3963,974.6964 C 1484.0963,977.3964 1483.4963,981.5964 1483.1963,983.8964 1482.6963,987.3964 1482.9963,988.1964 1484.8963,989.1964 1488.0963,990.8964 1491.5963,989.5964 1493.4963,985.9964 1495.6963,981.6964 1506.8963,947.7964 1506.8963,945.3964 1506.8963,942.6964 1504.6963,941.0964 1499.9963,940.4964 L 1496.0963,939.9964 1494.9963,945.0964 C 1494.3963,947.9964 1493.8963,951.1964 1493.8963,952.2964 1493.8963,954.2964 1493.4963,954.3964 1487.6963,953.6964 1470.9963,951.7964 1427.3963,937.8964 1419.4963,931.9964 1417.6963,930.5964 1417.6963,930.1964 1420.8963,917.0964 1424.8963,900.2964 1426.3963,896.7964 1429.4963,895.2964 1430.8963,894.6964 1438.6963,892.7964 1446.6963,891.1964 1454.7963,889.5964 1471.4963,885.9964 1483.8963,883.1964 1496.2963,880.3964 1508.9963,877.5964 1512.1963,876.8964 1516.8963,875.9964 1518.2963,875.2964 1518.9963,873.3964 1520.2963,870.0964 1520.0963,861.9964 1518.5963,860.0964 1517.8963,859.2964 1512.6963,856.0964 1506.8963,852.9964 1501.0963,849.8964 1492.3963,845.1964 1487.3963,842.4964 1482.4963,839.7964 1469.1963,832.6964 1457.9963,826.6964 L 1437.5963,815.6964 1438.2963,800.9964 C 1438.9963,784.5964 1439.7963,781.4964 1443.0963,780.7964 1446.1963,780.0964 1491.0963,778.1964 1503.4963,778.1964 1515.0963,778.1964 1515.5963,778.4964 1516.4963,785.7964 1517.2963,791.8964 1518.9963,794.6964 1522.7963,795.9964 1525.1963,796.8964 1525.8963,796.7964 1526.3963,795.3964 1527.9963,791.2964 1528.7963,778.5964 1528.1963,766.5964 L 1527.5963,753.4964 1522.9963,752.4964 C 1520.4963,751.8964 1505.7963,748.1964 1490.4963,744.2964 1475.0963,740.3964 1459.2963,736.8964 1455.1963,736.4964 1451.1963,736.1964 1447.8963,735.5964 1447.8963,735.0964 1447.8963,732.6964 1458.6963,727.7964 1472.8963,723.6964 1501.6963,715.4964 1525.8963,706.5964 1525.8963,703.9964 1525.8963,703.2964 1525.1963,699.1964 1524.3963,694.8964 1523.5963,690.5964 1522.8963,681.8964 1522.8963,675.5964 L 1522.8963,664.1964 1517.3963,664.1964 1511.9963,664.1964 1511.6963,672.3964 Z M 1484.6963,855.7964 C 1501.2963,864.4964 1504.0963,867.1964 1496.5963,867.1964 1494.7963,867.1964 1488.2963,868.0964 1481.9963,869.1964 1467.3963,871.7964 1463.3963,871.7964 1464.3963,869.3964 1464.7963,868.4964 1465.3963,864.1964 1465.7963,859.8964 1466.7963,847.9964 1468.8963,847.5964 1484.6963,855.7964 Z"></path><path style="fill:#d4d4d4;" d="M 83.8963,768.1964 C 81.3963,768.5964 75.1963,769.2964 70.1963,769.6964 L 60.8963,770.3964 60.8963,775.7964 60.8963,781.1964 75.6963,781.1964 90.5963,781.1964 92.7963,794.3964 C 95.0963,808.6964 95.4963,817.1964 93.8963,820.0964 92.1963,823.3964 85.0963,825.4964 73.6963,825.9964 67.7963,826.1964 61.8963,826.1964 60.4963,825.7964 58.0963,825.1964 57.8963,824.7964 57.8963,819.3964 57.8963,816.2964 58.3963,811.9964 58.9963,809.8964 L 59.9963,806.1964 66.2963,806.1964 C 73.1963,806.1964 78.8963,804.6964 78.8963,802.8964 78.8963,802.1964 78.3963,799.9964 77.7963,797.8964 76.8963,794.4964 76.4963,794.1964 73.0963,794.1964 71.0963,794.1964 65.7963,794.8964 61.3963,795.6964 56.9963,796.4964 47.6963,797.0964 40.7963,797.1964 28.8963,797.1964 28.0963,797.2964 25.9963,799.5964 23.8963,801.8964 23.7963,802.1964 25.2963,804.9964 27.2963,808.7964 29.3963,809.4964 37.6963,808.9964 L 44.1963,808.6964 45.4963,814.1964 C 46.1963,817.1964 46.7963,821.2964 46.8963,823.2964 L 46.8963,826.8964 36.1963,828.0964 C 30.1963,828.7964 24.3963,829.5964 23.2963,829.7964 21.3963,830.2964 20.8963,829.5964 18.9963,823.9964 14.9963,811.9964 14.4963,797.4964 17.6963,791.4964 19.9963,787.2964 22.8963,786.1964 31.1963,786.1964 42.3963,786.1964 45.8963,784.0964 45.8963,777.0964 45.8963,774.7964 45.3963,774.0964 43.1963,773.5964 39.4963,772.5964 9.4963,774.7964 6.8963,776.1964 2.2963,778.6964 1.8963,784.9964 4.8963,811.7964 5.9963,821.5964 7.1963,836.9964 7.5963,845.8964 L 8.1963,862.0964 12.1963,862.6964 C 14.2963,863.0964 16.4963,862.9964 16.9963,862.4964 17.5963,861.8964 18.2963,858.2964 18.5963,854.2964 18.8963,850.1964 19.7963,846.3964 20.5963,845.6964 23.1963,843.0964 29.3963,842.0964 49.3963,841.1964 60.3963,840.6964 73.4963,839.7964 78.3963,839.2964 93.0963,837.5964 98.8963,840.5964 97.3963,848.9964 96.6963,853.2964 98.3963,855.5964 103.1963,856.3964 105.5963,856.8964 106.1963,856.4964 107.0963,854.2964 108.2963,851.2964 107.5963,830.2964 105.7963,817.6964 105.2963,813.2964 104.3963,801.0964 103.9963,790.4964 103.1963,767.5964 102.9963,767.0964 93.9963,767.2964 90.8963,767.3964 86.3963,767.7964 83.8963,768.1964 Z"></path><path style="fill:#d4d4d4;" d="M 453.6963,818.3964 C 453.3963,825.6964 453.5963,836.6964 454.0963,842.8964 454.5963,849.0964 454.8963,871.0964 454.6963,891.8964 454.2963,927.9964 454.1963,929.9964 452.0963,935.6964 447.4963,948.1964 442.5963,953.8964 399.8963,995.8964 377.4963,1018.0964 356.4963,1039.4964 353.2963,1043.3964 350.0963,1047.3964 342.9963,1054.9964 337.5963,1060.2964 332.0963,1065.6964 327.7963,1070.3964 327.9963,1070.9964 328.1963,1071.4964 336.4963,1080.4964 346.3963,1090.9964 L 364.2963,1109.9964 368.8963,1106.1964 C 371.4963,1103.9964 384.4963,1091.0964 397.8963,1077.4964 411.1963,1063.8964 424.2963,1050.9964 426.7963,1048.8964 429.2963,1046.7964 447.8963,1028.5964 468.1963,1008.4964 496.5963,980.1964 505.4963,970.6964 507.3963,966.7964 511.6963,957.8964 513.1963,945.2964 512.6963,922.6964 511.8963,890.4964 513.6963,879.2964 520.6963,871.8964 525.7963,866.4964 529.6963,865.2964 545.0963,864.1964 561.3963,863.0964 629.6963,862.8964 650.1963,863.8964 L 663.8963,864.4964 663.8963,936.8964 663.8963,1009.2964 616.6963,1008.9964 569.3963,1008.6964 562.3963,1010.9964 C 546.7963,1016.2964 541.6963,1020.2964 501.4963,1059.4964 484.3963,1076.0964 465.6963,1094.1964 459.9963,1099.6964 437.5963,1121.2964 404.4963,1157.2964 405.9963,1158.5964 410.3963,1162.1964 451.0963,1192.1964 451.5963,1192.1964 451.9963,1192.1964 478.5963,1165.8964 510.8963,1133.8964 545.7963,1098.9964 571.2963,1074.3964 573.9963,1072.8964 580.0963,1069.2964 590.9963,1066.5964 605.3963,1065.1964 617.1963,1063.8964 683.8963,1064.3964 709.4963,1065.7964 L 720.5963,1066.3964 721.1963,976.5964 C 721.8963,891.5964 721.4963,828.5964 720.2963,812.3964 L 719.6963,805.1964 586.8963,805.1964 454.0963,805.1964 453.6963,818.3964 Z"></path><path style="fill:#d4d4d4;" d="M 919.3963,807.1964 C 861.6963,807.4964 813.6963,808.0964 812.6963,808.4964 811.7963,808.9964 810.8963,810.0964 810.6963,810.9964 810.5963,811.8964 810.4963,869.6964 810.6963,939.3964 L 810.9963,1066.1964 819.6963,1066.1964 C 824.4963,1066.1964 835.5963,1065.6964 844.3963,1065.1964 866.0963,1063.8964 918.6963,1063.8964 927.8963,1065.1964 945.5963,1067.6964 956.9963,1071.9964 965.1963,1079.1964 967.6963,1081.3964 974.5963,1088.7964 980.3963,1095.6964 986.2963,1102.4964 992.5963,1109.3964 994.3963,1110.8964 1006.0963,1120.5964 1042.9963,1156.1964 1065.2963,1179.2964 L 1077.8963,1192.2964 1100.6963,1176.0964 C 1113.1963,1167.1964 1123.7963,1159.5964 1124.2963,1159.0964 1124.7963,1158.5964 1123.6963,1156.4964 1121.6963,1153.9964 1114.4963,1145.2964 997.1963,1028.4964 990.8963,1023.7964 983.4963,1018.2964 975.1963,1014.0964 966.3963,1011.4964 961.1963,1009.9964 954.4963,1009.6964 914.1963,1009.3964 L 867.8963,1009.0964 867.8963,936.7964 867.8963,864.4964 928.8963,863.8964 C 995.4963,863.2964 997.4963,863.3964 1005.2963,868.8964 1008.2963,870.9964 1010.3963,873.7964 1013.1963,879.1964 1018.4963,889.6964 1019.3963,897.8964 1018.1963,921.2964 1017.6963,931.3964 1017.5963,943.4964 1017.9963,948.1964 1019.3963,963.4964 1025.5963,976.0964 1036.6963,986.0964 1055.5963,1003.2964 1081.2963,1027.9964 1133.1963,1078.9964 1150.0963,1095.5964 1164.6963,1109.1964 1165.5963,1109.1964 1167.4963,1109.1964 1195.1963,1081.0964 1199.8963,1074.4964 1202.8963,1070.3964 1203.5963,1068.1964 1202.1963,1068.1964 1201.6963,1068.1964 1176.3963,1043.2964 1145.8963,1012.8964 1086.4963,953.8964 1082.9963,949.8964 1078.4963,936.1964 1073.9963,922.6964 1073.4963,911.4964 1074.6963,861.4964 1075.3963,832.0964 1075.3963,814.9964 1074.7963,812.6964 1073.0963,806.5964 1070.9963,806.1964 1046.1963,806.3964 1034.1963,806.5964 977.1963,806.8964 919.3963,807.1964 Z"></path><path style="fill:#d4d4d4;" d="M 12.4963,880.5964 C 11.5963,884.0964 12.7963,891.5964 15.5963,900.6964 16.8963,905.0964 18.2963,911.8964 18.5963,915.8964 L 19.1963,922.9964 24.6963,923.3964 30.1963,923.6964 29.4963,916.6964 C 29.1963,912.7964 28.5963,908.6964 28.2963,907.5964 27.5963,904.7964 29.7963,904.1964 41.8963,904.1964 50.0963,904.1964 94.7963,908.5964 98.7963,909.7964 100.9963,910.4964 94.3963,914.8964 72.7963,927.1964 62.0963,933.2964 51.6963,939.6964 49.5963,941.2964 46.0963,944.0964 40.0963,947.1964 37.9963,947.1964 37.4963,947.1964 36.7963,945.0964 36.4963,942.3964 35.3963,934.5964 34.0963,932.2964 30.3963,931.5964 23.6963,930.3964 23.6963,929.3964 29.6963,958.1964 32.6963,972.7964 35.2963,984.8964 35.4963,985.0964 35.9963,985.6964 43.7963,980.8964 44.2963,979.5964 44.4963,978.9964 44.0963,976.2964 43.2963,973.5964 42.4963,970.9964 41.8963,967.9964 41.8963,966.9964 41.8963,965.1964 54.5963,956.5964 108.1963,921.6964 123.3963,911.7964 123.0963,912.2964 119.4963,903.7964 117.2963,898.3964 113.5963,897.0964 97.9963,896.0964 85.2963,895.2964 75.4963,894.2964 43.3963,890.5964 28.2963,888.8964 23.5963,887.0964 22.8963,882.6964 22.4963,880.6964 21.6963,879.5964 19.8963,879.0964 14.9963,877.6964 13.0963,878.0964 12.4963,880.5964 Z"></path><path style="fill:#d4d4d4;" d="M 126.2963,963.5964 C 123.5963,965.8964 123.4963,965.9964 124.7963,970.2964 127.6963,979.4964 127.7963,981.2964 126.0963,981.8964 125.0963,982.2964 115.8963,985.8964 105.3963,989.8964 84.2963,998.1964 65.9963,1003.7964 58.3963,1004.2964 L 53.4963,1004.6964 52.2963,999.2964 C 50.7963,992.7964 50.0963,991.9964 45.1963,991.7964 41.5963,991.6964 41.3963,991.8964 40.4963,995.4964 39.6963,998.5964 39.8963,1000.1964 41.7963,1004.4964 47.4963,1017.3964 49.0963,1021.7964 50.4963,1028.4964 52.1963,1036.5964 53.5963,1038.5964 58.5963,1040.2964 63.4963,1041.8964 64.0963,1040.5964 63.3963,1029.5964 L 62.8963,1020.4964 70.5963,1017.8964 C 74.8963,1016.4964 88.1963,1011.7964 100.0963,1007.3964 112.0963,1002.8964 124.3963,998.7964 127.4963,998.0964 132.9963,996.8964 133.1963,996.8964 134.9963,999.0964 136.0963,1000.3964 136.8963,1002.4964 136.8963,1003.8964 136.8963,1006.7964 141.0963,1011.1964 143.8963,1011.1964 147.1963,1011.1964 149.8963,1009.2964 149.8963,1007.0964 149.8963,1006.0964 148.4963,1002.0964 146.7963,998.3964 141.6963,987.1964 139.8963,982.1964 138.2963,974.7964 137.1963,969.3964 136.0963,966.8964 133.6963,964.4964 131.8963,962.6964 130.1963,961.1964 129.7963,961.1964 129.2963,961.1964 127.7963,962.2964 126.2963,963.5964 Z"></path><path style="fill:#d4d4d4;" d="M 143.3963,1031.9964 C 140.6963,1032.8964 131.1963,1037.2964 122.3963,1041.8964 90.7963,1058.2964 84.4963,1061.1964 79.2963,1061.7964 L 74.1963,1062.3964 72.9963,1057.8964 C 71.6963,1052.6964 69.7963,1051.1964 64.2963,1051.1964 L 60.5963,1051.1964 61.0963,1055.8964 C 61.3963,1059.1964 62.9963,1063.0964 66.0963,1068.3964 68.4963,1072.5964 72.0963,1079.9964 73.8963,1084.6964 77.5963,1094.1964 80.5963,1098.1964 84.1963,1098.1964 86.9963,1098.1964 89.8963,1095.3964 89.8963,1092.5964 89.8963,1091.5964 88.9963,1088.6964 87.8963,1086.2964 84.4963,1078.9964 84.8963,1078.1964 94.1963,1072.6964 106.3963,1065.3964 121.5963,1057.5964 129.1963,1054.6964 135.4963,1052.3964 140.8963,1051.4964 140.8963,1052.7964 140.8963,1053.0964 134.2963,1061.4964 126.1963,1071.3964 107.4963,1094.2964 92.2963,1113.4964 90.8963,1116.1964 89.9963,1117.9964 90.4963,1119.2964 94.5963,1125.4964 97.2963,1129.4964 100.2963,1135.4964 101.2963,1138.8964 103.5963,1146.4964 105.0963,1147.9964 111.1963,1148.7964 L 115.7963,1149.4964 115.2963,1145.5964 C 114.9963,1143.3964 113.8963,1139.5964 112.7963,1136.9964 111.7963,1134.3964 110.8963,1131.8964 110.8963,1131.4964 110.8963,1128.6964 174.6963,1096.1964 180.0963,1096.1964 180.4963,1096.1964 181.4963,1098.5964 182.2963,1101.4964 184.1963,1108.1964 186.7963,1110.6964 190.5963,1109.6964 197.4963,1107.9964 197.4963,1105.4964 190.1963,1092.6964 187.0963,1087.1964 183.2963,1079.0964 181.7963,1074.7964 178.5963,1065.5964 176.6963,1063.3964 171.9963,1062.9964 168.8963,1062.6964 168.3963,1062.9964 167.5963,1065.8964 166.7963,1068.4964 167.0963,1070.1964 168.7963,1074.0964 169.8963,1076.7964 170.8963,1079.4964 170.8963,1079.9964 170.8963,1081.9964 158.3963,1089.4964 138.8963,1099.0964 127.5963,1104.5964 117.0963,1109.4964 115.5963,1109.7964 L 112.6963,1110.4964 114.4963,1107.0964 C 116.9963,1102.0964 123.2963,1094.2964 136.4963,1079.6964 152.1963,1062.2964 158.1963,1054.6964 161.7963,1047.7964 165.5963,1040.5964 165.7963,1035.9964 162.3963,1032.6964 160.3963,1030.5964 159.0963,1030.1964 154.1963,1030.2964 150.9963,1030.2964 146.1963,1031.0964 143.3963,1031.9964 Z"></path><path style="fill:#d4d4d4;" d="M 1372.8963,1042.0964 C 1364.9963,1044.4964 1358.5963,1050.2964 1353.3963,1059.6964 1341.8963,1080.2964 1343.9963,1094.8964 1359.8963,1106.5964 1363.1963,1109.0964 1374.8963,1115.5964 1385.8963,1121.0964 1402.1963,1129.2964 1409.9963,1133.5964 1415.6963,1137.6964 1415.7963,1137.7964 1415.0963,1140.3964 1413.9963,1143.2964 1412.8963,1146.2964 1411.6963,1150.3964 1411.2963,1152.4964 L 1410.6963,1156.2964 1416.4963,1155.9964 1422.2963,1155.6964 1424.9963,1147.6964 C 1427.6963,1139.8964 1430.8963,1133.4964 1437.8963,1122.4964 1440.1963,1118.7964 1440.9963,1116.5964 1440.4963,1114.8964 1439.8963,1112.2964 1434.4963,1108.9964 1432.1963,1109.8964 1431.3963,1110.1964 1429.4963,1113.0964 1427.7963,1116.2964 1425.0963,1121.7964 1424.6963,1122.1964 1422.0963,1121.5964 1414.1963,1119.6964 1397.5963,1111.5964 1377.8963,1100.1964 1370.9963,1096.1964 1364.0963,1092.1964 1362.5963,1091.2964 1359.7963,1089.6964 1359.6963,1089.5964 1360.3963,1082.4964 1361.5963,1067.9964 1365.3963,1060.1964 1372.6963,1056.9964 1376.7963,1055.0964 1377.9963,1054.9964 1382.5963,1055.9964 1387.4963,1056.9964 1390.9963,1058.4964 1413.6963,1069.3964 1433.1963,1078.6964 1440.8963,1084.4964 1440.8963,1089.6964 1440.8963,1091.4964 1440.2963,1093.4964 1439.4963,1094.0964 1437.7963,1095.4964 1436.7963,1100.1964 1437.5963,1103.0964 1438.9963,1108.4964 1449.3963,1102.7964 1452.2963,1094.8964 1453.1963,1092.5964 1454.7963,1088.0964 1455.8963,1084.9964 1457.0963,1081.8964 1459.9963,1076.6964 1462.4963,1073.5964 1466.8963,1067.7964 1467.6963,1064.7964 1466.2963,1059.3964 1465.5963,1056.8964 1463.0963,1056.5964 1458.1963,1058.2964 1455.8963,1058.9964 1454.9963,1060.0964 1454.4963,1062.3964 1452.4963,1072.2964 1445.5963,1071.2964 1423.2963,1058.1964 1398.4963,1043.4964 1383.6963,1038.7964 1372.8963,1042.0964 Z"></path><path style="fill:#d4d4d4;" d="M 617.3963,1110.8964 C 608.7963,1111.8964 601.8963,1113.5964 597.7963,1115.7964 594.7963,1117.4964 576.9963,1134.6964 544.8963,1167.2964 499.3963,1213.2964 493.1963,1219.8964 493.9963,1220.5964 496.4963,1222.6964 536.3963,1242.1964 538.1963,1242.1964 543.5963,1242.1964 562.5963,1226.1964 602.2963,1188.1964 611.6963,1179.1964 618.7963,1173.2964 621.5963,1171.9964 626.8963,1169.6964 640.1963,1168.5964 651.2963,1169.6964 L 659.0963,1170.3964 658.4963,1173.6964 C 658.0963,1175.4964 656.3963,1178.5964 654.5963,1180.4964 649.5963,1185.9964 644.9963,1194.3964 641.5963,1203.8964 638.9963,1211.3964 638.4963,1214.0964 638.5963,1222.1964 638.7963,1261.0964 665.4963,1285.1964 718.4963,1294.1964 745.7963,1298.8964 787.3963,1299.2964 811.8963,1295.1964 825.7963,1292.7964 842.1963,1287.6964 850.8963,1283.0964 853.9963,1281.4964 861.0963,1276.4964 866.5963,1272.1964 877.6963,1263.4964 882.5963,1257.1964 887.4963,1245.5964 890.1963,1239.0964 890.2963,1237.8964 890.2963,1225.1964 890.0963,1204.5964 887.4963,1195.5964 878.2963,1185.0964 873.6963,1179.6964 869.2963,1171.4964 870.4963,1170.2964 870.7963,1169.9964 877.6963,1169.6964 885.6963,1169.6964 908.8963,1169.6964 906.0963,1168.0964 941.4963,1200.7964 957.8963,1215.9964 975.5963,1232.2964 980.6963,1236.9964 L 990.0963,1245.5964 993.1963,1243.7964 C 994.9963,1242.7964 1003.7963,1238.0964 1012.8963,1233.3964 1029.0963,1225.0964 1034.8963,1221.0964 1034.8963,1218.4964 1034.8963,1215.1964 940.4963,1120.2964 932.6963,1115.7964 925.2963,1111.5964 917.1963,1110.8964 862.0963,1110.4964 L 810.6963,1109.9964 811.0963,1133.8964 C 811.4963,1161.8964 812.0963,1163.9964 821.8963,1176.1964 829.0963,1185.1964 831.4963,1189.8964 832.9963,1197.7964 836.7963,1218.2964 825.4963,1231.2964 797.1963,1238.8964 788.0963,1241.3964 785.9963,1241.5964 766.3963,1241.5964 746.7963,1241.5964 744.6963,1241.3964 735.5963,1238.8964 716.6963,1233.7964 703.5963,1225.3964 698.1963,1214.7964 696.0963,1210.5964 695.5963,1208.2964 695.5963,1202.1964 695.5963,1192.9964 697.2963,1189.2964 706.2963,1178.9964 717.6963,1165.8964 719.4963,1159.4964 720.5963,1129.3964 L 721.1963,1110.1964 670.7963,1110.2964 C 643.0963,1110.3964 619.0963,1110.6964 617.3963,1110.8964 Z"></path><path style="fill:#d4d4d4;" d="M 1329.2963,1114.1964 C 1325.5963,1115.6964 1321.1963,1120.9964 1313.1963,1133.6964 1308.8963,1140.5964 1302.0963,1150.3964 1297.9963,1155.4964 1289.3963,1166.1964 1282.6963,1176.3964 1281.0963,1180.8964 1279.9963,1184.1964 1280.0963,1184.1964 1286.6963,1189.4964 1295.1963,1196.3964 1301.0963,1200.2964 1307.5963,1203.5964 1315.1963,1207.3964 1316.4963,1207.0964 1317.2963,1201.6964 1318.1963,1196.1964 1316.8963,1193.6964 1312.4963,1192.1964 1309.0963,1191.0964 1301.2963,1183.5964 1298.9963,1179.2964 1297.8963,1177.2964 1298.2963,1176.0964 1301.9963,1169.5964 1307.1963,1160.4964 1315.4963,1150.1964 1319.2963,1148.2964 1321.7963,1146.8964 1322.3963,1146.9964 1328.1963,1149.8964 1334.1963,1152.8964 1345.3963,1160.6964 1347.7963,1163.5964 1349.2963,1165.3964 1347.6963,1168.7964 1342.3963,1174.8964 1338.3963,1179.5964 1336.8963,1180.0964 1334.7963,1177.4964 1329.8963,1171.5964 1322.3963,1168.7964 1317.7963,1171.1964 1315.0963,1172.6964 1315.3963,1174.2964 1319.3963,1178.9964 1326.6963,1187.3964 1354.3963,1206.1964 1359.6963,1206.1964 1368.6963,1206.1964 1364.8963,1195.8964 1354.4963,1192.0964 1352.4963,1191.3964 1350.8963,1190.0964 1350.8963,1189.1964 1350.8963,1185.4964 1353.1963,1180.3964 1356.6963,1176.3964 L 1360.4963,1172.0964 1367.4963,1177.0964 C 1371.2963,1179.7964 1375.9963,1183.3964 1377.8963,1184.9964 L 1381.3963,1187.9964 1378.4963,1193.3964 C 1370.9963,1207.1964 1361.0963,1218.1964 1356.1963,1218.1964 1354.6963,1218.1964 1349.3963,1215.6964 1344.2963,1212.5964 1332.8963,1205.6964 1329.5963,1205.4964 1329.0963,1211.5964 1328.7963,1214.6964 1329.2963,1215.9964 1331.5963,1218.3964 1335.0963,1222.0964 1348.6963,1231.9964 1355.5963,1235.7964 L 1360.7963,1238.6964 1363.8963,1235.6964 C 1368.4963,1231.3964 1373.3963,1224.4964 1382.2963,1210.0964 1386.5963,1203.0964 1393.0963,1193.6964 1396.6963,1189.1964 1407.9963,1175.2964 1409.8963,1172.1964 1409.8963,1167.4964 1409.8963,1164.2964 1409.4963,1163.1964 1408.3963,1163.1964 1405.6963,1163.1964 1401.5963,1165.8964 1396.9963,1170.5964 L 1392.5963,1175.0964 1388.4963,1172.9964 C 1380.0963,1168.7964 1334.6963,1136.2964 1331.0963,1131.8964 1330.1963,1130.8964 1330.4963,1129.6964 1332.2963,1127.0964 1334.7963,1123.2964 1336.8963,1117.8964 1336.8963,1115.0964 1336.8963,1112.9964 1333.1963,1112.5964 1329.2963,1114.1964 Z"></path><path style="fill:#d4d4d4;" d="M 193.5963,1130.6964 C 190.9963,1131.5964 184.4963,1135.2964 179.0963,1138.8964 173.7963,1142.5964 165.9963,1147.8964 161.8963,1150.6964 157.7963,1153.4964 151.3963,1158.0964 147.6963,1160.9964 141.2963,1165.7964 135.9963,1168.1964 131.2963,1168.1964 129.6963,1168.1964 128.9963,1167.3964 128.4963,1164.9964 127.5963,1160.1964 126.1963,1159.1964 120.6963,1159.1964 L 115.7963,1159.1964 116.4963,1162.8964 C 117.4963,1168.2964 118.9963,1170.8964 125.6963,1178.4964 128.9963,1182.1964 132.9963,1188.0964 134.6963,1191.6964 138.0963,1198.5964 140.3963,1200.6964 146.0963,1201.6964 149.1963,1202.2964 149.7963,1202.0964 150.3963,1200.2964 150.6963,1199.0964 151.6963,1198.1964 152.4963,1198.1964 153.2963,1198.1964 153.8963,1197.6964 153.8963,1197.1964 153.8963,1196.5964 153.3963,1196.1964 152.8963,1196.1964 150.6963,1196.1964 145.8963,1186.8964 145.8963,1182.5964 145.8963,1178.9964 146.2963,1178.2964 148.6963,1177.2964 150.2963,1176.5964 160.0963,1170.0964 170.4963,1162.6964 193.8963,1145.9964 200.0963,1142.5964 205.0963,1143.5964 210.7963,1144.5964 217.9963,1150.1964 221.6963,1156.1964 224.2963,1160.5964 224.8963,1162.6964 224.8963,1167.2964 224.8963,1177.1964 220.3963,1181.8964 194.0963,1199.6964 167.6963,1217.4964 169.2963,1216.6964 166.3963,1214.7964 164.9963,1213.8964 163.2963,1211.7964 162.3963,1210.1964 160.5963,1206.7964 158.0963,1205.1964 154.4963,1205.1964 152.3963,1205.1964 151.8963,1205.7964 151.3963,1208.5964 150.3963,1213.3964 151.2963,1215.2964 158.1963,1223.8964 161.4963,1228.1964 166.4963,1235.2964 169.0963,1239.8964 174.1963,1248.4964 175.9963,1250.1964 180.3963,1250.1964 185.4963,1250.1964 185.7963,1242.4964 180.9963,1236.4964 175.6963,1229.8964 176.2963,1229.2964 213.2963,1203.3964 233.4963,1189.0964 239.8963,1181.3964 239.8963,1170.9964 239.8963,1158.3964 226.8963,1138.2964 214.7963,1132.0964 209.1963,1129.2964 199.9963,1128.6964 193.5963,1130.6964 Z"></path><path style="fill:#d4d4d4;" d="M 1274.5963,1219.6964 C 1265.2963,1222.0964 1259.2963,1231.5964 1260.0963,1242.5964 1260.4963,1248.1964 1260.7963,1248.7964 1265.2963,1252.8964 1270.7963,1257.7964 1276.0963,1259.5964 1283.5963,1258.9964 1293.3963,1258.1964 1300.0963,1249.6964 1300.0963,1237.9964 1300.0963,1224.4964 1288.3963,1216.0964 1274.5963,1219.6964 Z"></path><path style="fill:#d4d4d4;" d="M 244.3963,1222.5964 C 239.5963,1224.6964 234.7963,1229.2964 232.7963,1233.6964 226.7963,1246.6964 237.3963,1261.1964 252.8963,1261.1964 263.5963,1261.1964 270.3963,1253.7964 271.4963,1240.8964 271.9963,1235.1964 271.7963,1234.2964 268.9963,1229.8964 264.7963,1223.3964 260.8963,1221.1964 253.3963,1221.1964 250.0963,1221.2964 246.0963,1221.8964 244.3963,1222.5964 Z"></path><path style="fill:#d4d4d4;" d="M 908.8963,1414.6964 C 896.0963,1418.7964 888.5963,1424.8964 886.0963,1433.1964 885.4963,1435.0964 884.7963,1440.2964 884.3963,1444.6964 L 883.7963,1452.6964 888.9963,1456.3964 C 891.7963,1458.4964 894.6963,1460.1964 895.2963,1460.1964 895.8963,1460.1964 898.7963,1459.0964 901.7963,1457.6964 L 907.1963,1455.1964 906.4963,1450.3964 C 905.9963,1446.5964 905.0963,1444.9964 901.8963,1441.9964 899.6963,1439.8964 897.8963,1437.8964 897.8963,1437.3964 897.8963,1435.4964 905.7963,1429.0964 911.3963,1426.4964 929.5963,1418.0964 949.0963,1430.6964 942.4963,1446.5964 940.3963,1451.5964 934.6963,1456.4964 922.9963,1463.2964 904.0963,1474.2964 898.5963,1479.1964 894.0963,1489.0964 892.0963,1493.3964 891.5963,1496.1964 891.5963,1502.6964 891.4963,1509.9964 891.7963,1511.3964 894.5963,1516.2964 L 897.5963,1521.6964 903.5963,1521.9964 C 911.1963,1522.3964 913.0963,1520.7964 912.6963,1514.7964 912.3963,1511.0964 912.1963,1510.6964 909.6963,1510.6964 906.1963,1510.7964 906.1963,1510.1964 909.9963,1506.5964 914.7963,1501.9964 919.8963,1502.4964 932.7963,1508.6964 942.6963,1513.3964 943.5963,1513.6964 951.3963,1513.6964 958.7963,1513.6964 959.8963,1513.3964 963.1963,1510.8964 968.8963,1506.5964 970.3963,1502.9964 970.3963,1493.6964 970.3963,1487.0964 969.8963,1484.6964 967.6963,1479.8964 965.0963,1474.2964 964.8963,1474.1964 960.8963,1474.1964 955.1963,1474.1964 950.2963,1476.4964 948.4963,1480.0964 946.4963,1483.9964 946.4963,1485.4964 948.6963,1488.0964 950.2963,1490.1964 958.4963,1492.9964 957.2963,1491.0964 956.5963,1489.9964 957.9963,1489.9964 959.6963,1491.0964 960.7963,1491.7964 960.7963,1492.5964 959.4963,1495.5964 957.9963,1499.1964 957.9963,1499.1964 951.7963,1499.1964 946.3963,1499.1964 944.3963,1498.5964 936.5963,1494.5964 927.7963,1490.0964 927.2963,1489.9964 920.9963,1490.4964 917.3963,1490.8964 913.1963,1491.3964 911.6963,1491.7964 908.9963,1492.3964 908.9963,1492.3964 909.9963,1489.4964 911.3963,1485.1964 914.9963,1482.1964 925.8963,1476.1964 944.3963,1465.8964 952.9963,1458.5964 956.9963,1449.8964 962.6963,1437.0964 954.5963,1419.5964 940.4963,1414.2964 932.3963,1411.2964 919.0963,1411.3964 908.8963,1414.6964 Z"></path><path style="fill:#d4d4d4;" d="M 610.8963,1421.5964 L 610.8963,1427.1964 615.2963,1427.1964 C 620.8963,1427.1964 624.4963,1429.9964 625.9963,1435.3964 626.8963,1438.8964 626.5963,1442.5964 623.9963,1458.5964 622.2963,1469.0964 620.1963,1482.7964 619.3963,1488.9964 617.2963,1505.3964 616.5963,1506.1964 604.4963,1506.1964 L 596.8963,1506.1964 596.8963,1509.4964 C 596.8963,1515.7964 598.5963,1516.7964 610.0963,1517.4964 615.7963,1517.8964 623.7963,1519.0964 627.8963,1520.1964 631.9963,1521.3964 637.3963,1522.5964 639.8963,1522.8964 643.7963,1523.2964 644.6963,1523.0964 646.8963,1520.7964 648.8963,1518.4964 649.0963,1517.7964 648.0963,1516.3964 647.3963,1515.4964 646.5963,1513.8964 646.2963,1512.8964 645.8963,1511.8964 644.6963,1511.1964 643.2963,1511.1964 639.3963,1511.1964 632.7963,1508.0964 631.8963,1505.7964 631.3963,1504.4964 632.1963,1497.0964 633.9963,1486.1964 639.4963,1452.6964 643.8963,1424.7964 643.8963,1423.0964 643.8963,1421.7964 642.5963,1421.2964 637.6963,1420.7964 634.1963,1420.3964 628.8963,1419.4964 625.8963,1418.6964 622.8963,1417.9964 618.2963,1416.9964 615.6963,1416.6964 L 610.8963,1415.9964 610.8963,1421.5964 Z"></path><path style="fill:#d4d4d4;" d="M 848.6963,1423.7964 C 845.2963,1425.2964 844.9963,1425.5964 845.5963,1428.4964 845.8963,1430.2964 846.9963,1433.3964 848.0963,1435.3964 L 849.8963,1439.1964 847.1963,1439.1964 C 841.9963,1439.1964 836.3963,1436.9964 831.0963,1432.9964 828.1963,1430.7964 824.2963,1428.3964 822.3963,1427.5964 818.6963,1426.0964 805.8963,1425.6964 805.8963,1427.0964 805.8963,1428.8964 801.1963,1429.0964 795.5963,1427.4964 791.4963,1426.3964 789.4963,1426.1964 788.6963,1426.9964 787.3963,1428.2964 789.2963,1465.1964 790.8963,1468.0964 792.1963,1470.6964 796.9963,1473.1964 800.3963,1473.1964 L 802.9963,1473.1964 802.2963,1458.3964 C 801.6963,1444.6964 801.7963,1443.4964 803.5963,1441.2964 806.1963,1438.1964 810.3963,1438.8964 818.4963,1443.8964 828.9963,1450.2964 829.5963,1450.4964 838.5963,1450.2964 843.0963,1450.2964 846.8963,1450.5964 846.8963,1451.0964 846.8963,1452.3964 840.3963,1460.2964 832.3963,1468.6964 821.1963,1480.3964 818.9963,1486.8964 818.1963,1510.1964 L 817.5963,1525.7964 820.7963,1528.4964 C 824.5963,1531.6964 827.7963,1531.8964 830.9963,1529.2964 833.2963,1527.3964 833.3963,1526.8964 833.4963,1511.4964 833.6963,1488.1964 835.4963,1483.2964 849.8963,1467.5964 861.7963,1454.6964 864.8963,1448.5964 864.8963,1437.8964 864.8963,1429.0964 863.1963,1424.6964 859.2963,1423.1964 855.7963,1421.7964 853.0963,1421.9964 848.6963,1423.7964 Z"></path><path style="fill:#d4d4d4;" d="M 713.5963,1427.6964 C 708.5963,1429.5964 700.7963,1435.2964 697.6963,1439.3964 691.9963,1446.8964 691.3963,1448.9964 691.4963,1460.6964 691.5963,1475.1964 693.4963,1481.8964 699.2963,1487.5964 704.8963,1493.2964 710.8963,1495.2964 723.8963,1495.8964 733.4963,1496.3964 734.9963,1496.1964 741.2963,1493.7964 745.0963,1492.2964 748.8963,1490.5964 749.6963,1489.8964 750.9963,1488.8964 751.0963,1489.3964 750.4963,1494.1964 748.5963,1508.6964 738.9963,1518.4964 725.3963,1519.8964 717.9963,1520.6964 713.3963,1519.5964 709.3963,1516.0964 706.1963,1513.1964 705.9963,1512.8964 707.3963,1510.8964 711.3963,1505.1964 706.7963,1497.8964 699.5963,1498.3964 693.8963,1498.7964 691.3963,1502.3964 691.3963,1510.0964 691.3963,1517.9964 694.4963,1522.5964 702.9963,1527.1964 709.2963,1530.5964 709.5963,1530.6964 721.3963,1530.6964 732.7963,1530.6964 733.6963,1530.4964 740.0963,1527.4964 752.2963,1521.6964 760.6963,1511.4964 764.4963,1497.5964 766.2963,1490.6964 766.6963,1466.5964 764.9963,1456.1964 761.7963,1436.1964 748.4963,1426.0964 725.6963,1426.2964 721.0963,1426.2964 715.6963,1426.9964 713.5963,1427.6964 Z M 741.4963,1442.7964 C 747.1963,1446.2964 749.7963,1450.2964 750.5963,1456.8964 751.4963,1464.6964 748.7963,1472.2964 742.9963,1478.1964 738.2963,1483.0964 738.1963,1483.1964 732.0963,1483.1964 715.3963,1483.1964 706.7963,1477.5964 704.7963,1465.2964 704.1963,1461.6964 704.4963,1459.6964 705.9963,1456.1964 712.8963,1440.2964 714.8963,1438.8964 728.0963,1439.3964 735.5963,1439.7964 737.3963,1440.1964 741.4963,1442.7964 Z"></path></g></g></svg>